<svg width="1004" height="1004" viewBox="0 0 1004 1004" fill="none" xmlns="http://www.w3.org/2000/svg">
<circle cx="502" cy="502" r="502" fill="#0B0B0B"/>
<path d="M100 347.199C100 337.209 111.366 331.469 119.405 337.399L363.307 517.311C366.419 519.606 368.256 523.243 368.256 527.11V655.938C368.256 665.927 356.89 671.667 348.85 665.737L104.949 485.826C101.837 483.53 100 479.893 100 476.026V347.199Z" fill="#FEF4E3"/>
<path d="M367.893 347.199C367.893 337.209 379.259 331.469 387.299 337.399L631.2 517.311C634.312 519.606 636.149 523.243 636.149 527.11V655.938C636.149 665.927 624.783 671.667 616.744 665.737L372.842 485.826C369.73 483.53 367.893 479.893 367.893 476.026V347.199Z" fill="#FEF4E3"/>
<path d="M367.893 505.5C367.893 495.51 379.259 489.77 387.299 495.7L434.867 530.788V438.767H368.256V497.637C368.256 507.627 356.89 513.367 348.85 507.437L290.265 464.222L290.265 583.368H367.893L367.893 505.5Z" fill="#FEF4E3"/>
<path d="M635.787 347.199C635.787 337.209 647.153 331.469 655.192 337.399L899.094 517.311C902.206 519.606 904.042 523.243 904.042 527.11V655.938C904.042 665.927 892.676 671.667 884.637 665.737L640.735 485.826C637.623 483.53 635.787 479.893 635.787 476.026V347.199Z" fill="#FEF4E3"/>
<path d="M635.787 505.5C635.787 495.51 647.153 489.77 655.192 495.7L702.76 530.788V438.767H636.149V497.637C636.149 507.627 624.783 513.367 616.744 507.437L558.158 464.222L558.158 583.368H635.787V505.5Z" fill="#FEF4E3"/>
</svg>
