<svg width="521" height="224" viewBox="0 0 521 224" fill="none" xmlns="http://www.w3.org/2000/svg">
<g clip-path="url(#clip0_90_8)">
<path d="M-4 11.0144C-4 4.45131 3.46729 0.680457 8.74891 4.57639L168.987 122.774C171.031 124.282 172.238 126.672 172.238 129.212V213.849C172.238 220.412 164.771 224.183 159.489 220.287L-0.748918 102.089C-2.79336 100.581 -4 98.1917 -4 95.6512V11.0144Z" fill="#0B0B0B"/>
<path d="M172 11.0144C172 4.45131 179.467 0.680457 184.749 4.57639L344.987 122.774C347.031 124.282 348.238 126.672 348.238 129.212V213.849C348.238 220.412 340.771 224.183 335.489 220.287L175.251 102.089C173.207 100.581 172 98.1917 172 95.6512V11.0144Z" fill="#0B0B0B"/>
<path d="M172 115.014C172 108.451 179.467 104.681 184.749 108.576L216 131.628V71.1724H172.238V109.849C172.238 116.412 164.771 120.183 159.489 116.287L121 87.8959L121 166.172H172L172 115.014Z" fill="#0B0B0B"/>
<path d="M348 11.0144C348 4.45131 355.467 0.680461 360.749 4.57639L520.987 122.774C523.031 124.282 524.238 126.672 524.238 129.212V213.849C524.238 220.412 516.771 224.183 511.489 220.287L351.251 102.089C349.207 100.581 348 98.1917 348 95.6512V11.0144Z" fill="#0B0B0B"/>
<path d="M348 115.014C348 108.451 355.467 104.681 360.749 108.576L392 131.628V71.1723H348.238V109.849C348.238 116.412 340.771 120.183 335.489 116.287L297 87.8959L297 166.172H348V115.014Z" fill="#0B0B0B"/>
</g>
<defs>
<clipPath id="clip0_90_8">
<rect width="224" height="521" fill="white" transform="translate(521) rotate(90)"/>
</clipPath>
</defs>
</svg>
